<svg width="128" height="128" viewBox="0 0 128 128" fill="none" xmlns="http://www.w3.org/2000/svg">
<g clip-path="url(#clip0)">
<path d="M22.3821 84.0924V30.3711L64.018 72.0048L105.614 30.4112V84.0924H124.776C126.919 77.608 128.004 70.8233 128 63.9985C128 28.6529 99.3495 0 64.002 0C28.6545 0 0 28.6529 0 63.9985C0 71.0195 1.13352 77.7723 3.22433 84.0924H22.3821Z" fill="#137E6E"/>
<path d="M91.7255 97.1121V63.1523L63.78 91.0964L36.0307 63.3486V97.1161H9.22266C20.4377 115.628 40.7731 128 64.0003 128C87.2275 128 107.563 115.628 118.778 97.1161L91.7295 97.1161L91.7255 97.1121Z" fill="#137E6E"/>
</g>
<defs>
<clipPath id="clip0">
<rect width="128" height="128" fill="white"/>
</clipPath>
</defs>
</svg>
