<svg width="128" height="128" viewBox="0 0 128 128" fill="none" xmlns="http://www.w3.org/2000/svg">
<path d="M64.1894 0.691217V0.757777C64.2509 1.0701 64.2509 1.44898 64.2509 1.83298V47.2883C64.1894 47.5443 64 47.6058 63.8106 47.7338C62.4845 48.3635 61.225 48.9318 59.904 49.495C58.071 50.3142 56.1818 51.2 54.3539 52.0192L47.7338 55.0451C45.9059 55.8643 44.073 56.6835 42.3066 57.5027C40.1664 58.5165 37.9546 59.4586 35.8144 60.4723C33.9866 61.2915 32.1587 62.1722 30.2643 62.9914C28.7539 63.6826 27.2435 64.3174 25.7894 65.0086C25.6744 65.0793 25.5449 65.1231 25.4106 65.1366C25.3491 65.1366 25.3491 65.1366 25.2826 65.0701L26.9875 62.2336C30.2643 56.8115 33.4797 51.4509 36.7616 46.0288C40.2278 40.2278 43.7606 34.4269 47.2269 28.6259C50.4422 23.2653 53.7242 17.9098 56.9395 12.5491C59.2691 8.63746 61.6653 4.7309 64 0.824337C64.0614 0.691217 64.128 0.629777 64.128 0.506897H64.1894C64.128 0.568337 64.1894 0.629777 64.1894 0.691217Z" fill="#137E6E"/>
<path d="M102.907 65.0752L102.968 65.1366L93.7011 70.6202L64.5683 87.8336C64.4403 87.895 64.3123 87.9616 64.2509 88.023C64.0614 88.023 64.0614 87.8336 64.0614 87.767V48.2458C64.0614 48.0512 64.0614 47.8003 64.128 47.6109C64.1894 47.3549 64.3789 47.4214 64.5683 47.4829C65.3875 47.8618 66.2682 48.2406 67.0874 48.6195C69.545 49.7562 72.0077 50.8877 74.4653 51.9629C76.6157 52.9101 78.6893 53.9187 80.8346 54.8608C82.9798 55.808 85.1251 56.8166 87.2653 57.7638C89.0931 58.583 90.9875 59.4637 92.8154 60.2829C94.6432 61.1021 96.5376 61.9878 98.3654 62.807C99.8144 63.4368 101.263 64.1331 102.717 64.7629C102.717 64.9523 102.779 65.0138 102.907 65.0752Z" fill="#137E6E"/>
<path d="M64.1894 127.181C64.1894 127.242 64.128 127.309 64.128 127.37H64.0614C64.0614 127.242 63.9386 127.181 63.872 127.053C59.9654 121.569 56.0538 116.019 52.1472 110.536L40.1664 93.6397C36.3213 88.2125 32.4096 82.729 28.5645 77.3069C27.5558 75.8528 26.5472 74.4653 25.5386 73.0163C25.472 72.8883 25.4106 72.8269 25.2826 72.6374C25.472 72.6374 25.6 72.7654 25.6614 72.8269C31.1501 76.0422 36.567 79.2576 42.0557 82.473C48.3635 86.1952 54.6048 89.9174 60.9126 93.6346L64.128 95.529C64.2509 95.6518 64.2509 95.7798 64.2509 95.9078V126.295C64.2509 126.612 64.2509 126.93 64.1894 127.181Z" fill="#137E6E"/>
<path d="M25.3491 65.0752H25.6051V65.3312H25.0931V65.0752H25.3491Z" fill="#137E6E"/>
<path d="M64.3841 1.07517C64.1281 1.07517 64.1281 0.819171 64.1281 0.563171H64.3841V1.07517Z" fill="#137E6E"/>
<path d="M25.2211 65.1981V65.1366C27.2384 64.2509 29.1942 63.3088 31.2115 62.423C33.7971 61.225 36.3827 60.0883 38.9683 58.8902C40.9242 58.0096 42.9414 57.0624 44.8922 56.1766C47.7952 54.8557 50.6317 53.5962 53.5347 52.2701C55.4854 51.3894 57.4413 50.5088 59.4586 49.5565C60.8461 48.9318 62.295 48.297 63.6826 47.6672C63.8106 47.6058 64 47.5443 64.0614 47.4163C64.128 47.4163 64.128 47.4778 64.0614 47.5443V87.5827C64.0614 87.7722 64 87.9616 64.128 88.0845C64 88.2739 63.872 88.0845 63.8106 88.023C63.2304 87.7102 62.6633 87.3737 62.1107 87.0144C49.9405 79.8259 37.7088 72.576 25.5386 65.3875C25.4417 65.3104 25.3349 65.2467 25.2211 65.1981ZM102.779 72.6374H102.84C102.84 72.7654 102.717 72.8934 102.651 73.0163C91.049 89.3491 79.447 105.743 67.8451 122.071C66.647 123.776 65.3875 125.476 64.1894 127.181C64.128 127.119 64.128 127.053 64.128 126.991V95.4675C66.775 93.8854 69.3606 92.375 72.0077 90.7981C82.2221 84.7462 92.4365 78.7558 102.589 72.704C102.651 72.7654 102.717 72.704 102.779 72.6374Z" fill="#137E6E"/>
<path d="M64.128 47.5443V1.26462C64.128 1.07006 64.0614 0.947185 64.1894 0.752625C76.9894 22.0058 89.7894 43.1923 102.528 64.4454C102.651 64.6298 102.84 64.8806 102.907 65.1366C102.021 64.8192 101.202 64.3789 100.383 64C99.3741 63.5597 98.304 63.0528 97.2902 62.6176C96.6605 62.295 95.9693 62.0442 95.3395 61.7318C94.2643 61.225 93.1942 60.7846 92.1242 60.2778C91.4809 60.0103 90.8489 59.7165 90.2298 59.3971L86.0672 57.5027C85.376 57.1904 84.6848 56.873 83.927 56.5606L80.896 55.2346C80.2662 54.9786 79.6365 54.6714 79.0067 54.3539L74.8442 52.4595C74.153 52.1472 73.4618 51.8298 72.704 51.5174L69.673 50.1914C68.9818 49.8739 68.352 49.5616 67.6557 49.2442C66.4576 48.681 65.2595 48.1126 64 47.6058C64.1894 47.5443 64.128 47.5443 64.128 47.5443Z" fill="#137E6E"/>
</svg>
